<svg xmlns="http://www.w3.org/2000/svg" width="626" height="625" viewBox="0 0 626 625" version="1.1"><path d="M 234 245.452 C 216.168 247.744, 206.668 250.490, 181 260.770 C 153.783 271.672, 140.036 275.671, 116.776 279.454 C 108.679 280.772, 101.589 282.136, 101.022 282.487 C 100.454 282.837, 99.983 285.009, 99.974 287.312 C 99.951 293.046, 99.440 308.119, 99.198 310.189 C 99.089 311.118, 97.154 314.011, 94.898 316.618 L 90.796 321.358 91.152 332.429 C 91.562 345.124, 93.377 349.788, 98.436 351.141 C 104.448 352.749, 142.744 358.302, 148.489 358.399 L 154.479 358.500 155.622 349.886 C 157.674 334.428, 164.413 323.890, 175.500 318.801 C 182.358 315.653, 195.336 315.605, 202.176 318.704 C 217.850 325.804, 226.345 345.829, 219.773 360.184 C 216.353 367.656, 211.864 372.430, 205.192 375.694 C 194.986 380.688, 181.750 379.053, 173.486 371.779 C 171.014 369.603, 169.206 367.475, 169.468 367.051 C 169.731 366.627, 171.977 366.001, 174.459 365.661 C 178.234 365.143, 179.571 365.448, 182.626 367.521 C 185.397 369.402, 187.581 370, 191.672 370 C 205.642 370, 214.743 360.003, 213.829 345.660 C 213.079 333.877, 205.166 326.612, 193 326.535 C 183.973 326.478, 178.180 328.708, 172.455 334.445 C 166.077 340.835, 163.597 347.866, 164.167 357.944 L 164.553 364.781 157.026 365.427 C 148.736 366.139, 130.198 364.777, 117 362.486 C 112.325 361.675, 97.654 358.574, 84.397 355.596 C 47.829 347.381, 35.735 346.416, 20.125 350.466 C 11.390 352.732, -0.334 358.066, 0.840 359.240 C 1.416 359.816, 4.395 359.028, 8.636 357.177 C 21.918 351.380, 33.191 349.648, 47.994 351.130 C 53.222 351.653, 70.588 354.984, 86.585 358.532 C 119.718 365.882, 137.302 368.298, 154.231 367.827 L 165.962 367.500 169.001 371.186 C 175.690 379.299, 190.460 383.043, 202.252 379.615 C 209.439 377.526, 217.848 370.055, 221.567 362.453 C 223.706 358.081, 224.219 355.613, 224.207 349.763 C 224.179 335.911, 217.455 324.233, 205.900 317.969 C 199.745 314.633, 199.096 314.500, 188.929 314.500 C 179.152 314.500, 177.918 314.725, 172.487 317.503 C 161.722 323.008, 154.703 334.586, 153.358 349.057 C 153 352.910, 152.326 356.299, 151.860 356.586 C 150.950 357.149, 105.913 350.521, 99.843 348.931 C 95.141 347.699, 93.965 344.648, 93.269 331.878 C 92.780 322.902, 92.894 322.106, 94.966 320.034 C 100.946 314.054, 102 311.264, 102 301.419 C 102 296.304, 102.432 291.851, 102.959 291.525 C 104.333 290.676, 108.001 293.201, 107.993 294.991 C 107.990 295.821, 107.093 297.850, 106 299.500 C 104.907 301.150, 104.010 303.338, 104.007 304.361 C 103.999 306.478, 104.954 306.391, 120.117 302.887 C 128.469 300.957, 133 298.400, 133 295.616 C 133 291.958, 126.686 289.973, 110.246 288.463 C 103.100 287.806, 100.861 286.739, 102.722 284.878 C 103.243 284.357, 109.336 283.061, 116.264 281.998 C 138.614 278.567, 152.424 274.570, 182.267 262.893 C 217.432 249.133, 226.396 247.257, 261.500 246.310 C 296.387 245.369, 320.052 247.863, 335.876 254.149 C 350.058 259.783, 386.880 279.454, 385.613 280.720 C 385.309 281.025, 374.358 276.054, 361.280 269.673 C 325.420 252.179, 313.623 249.551, 271 249.559 C 240.294 249.565, 226.495 251.585, 205.425 259.160 C 195.417 262.757, 191.128 266.181, 190.337 271.204 C 189.836 274.384, 190.172 275.326, 192.719 277.873 C 197.773 282.927, 206.337 284.330, 242 285.949 C 289.620 288.110, 306.909 289.108, 324.500 290.713 C 334.595 291.634, 352.820 292.387, 366 292.428 C 390.993 292.505, 395.282 291.853, 396.337 287.818 C 396.628 286.707, 397.284 286.058, 397.796 286.374 C 398.308 286.690, 411.726 288.334, 427.613 290.026 C 486.379 296.287, 508.508 300.192, 521 306.509 C 527.705 309.899, 529.099 311.928, 529.705 319.176 L 530.233 325.500 527.966 323.321 C 525.902 321.339, 525.814 320.863, 526.989 318.026 C 530.047 310.643, 524.635 307.835, 507 307.657 C 495.836 307.544, 492 308.632, 492 311.913 C 492 314.566, 493.219 315.297, 506 320.306 C 533.577 331.113, 531.497 329.725, 532.603 338.064 C 533.139 342.105, 532.992 343.112, 531.889 342.957 C 528.807 342.526, 528 343.129, 528 345.860 C 528 347.434, 529.087 350.323, 530.416 352.281 C 532.658 355.585, 532.712 355.950, 531.166 357.336 C 529.452 358.874, 518.891 361.327, 508.762 362.540 C 504.342 363.070, 502.919 362.914, 502.566 361.864 C 502.314 361.114, 501.649 355.191, 501.087 348.702 C 500.200 338.448, 499.647 336.118, 496.866 330.899 C 489.185 316.488, 475.002 309.346, 459.140 311.900 C 444.631 314.237, 434.099 322.626, 426.998 337.504 C 424.755 342.203, 421.978 346.512, 420.734 347.223 C 414.500 350.786, 275.500 347.990, 255.143 343.892 C 251.511 343.161, 250.114 342.486, 250.804 341.796 C 251.493 341.107, 262.716 341.360, 285.660 342.585 C 328.178 344.853, 402.170 345.204, 408.910 343.168 C 414.800 341.390, 423.521 333.217, 422.606 330.334 C 421.087 325.547, 410.078 323.252, 382.947 322.067 C 341.538 320.257, 271.634 318.723, 257.500 319.313 C 243.050 319.916, 238.095 320.913, 233.924 324.055 C 231.390 325.964, 231.280 326.827, 229.731 357 L 229.500 361.500 257.500 362.200 C 272.900 362.586, 319.064 363.335, 360.086 363.867 L 434.672 364.832 440.594 370.754 C 448.787 378.947, 455.301 381.399, 467 380.695 C 471.675 380.414, 480.225 379.027, 486 377.613 C 491.775 376.199, 499.650 374.592, 503.500 374.041 C 517.563 372.029, 541.636 373.085, 571 377.002 C 594.481 380.134, 611.348 380.118, 622.370 376.952 C 629.006 375.045, 625.156 373.752, 617.922 375.457 C 608.359 377.711, 595.444 377.327, 566 373.916 C 524.998 369.164, 507.675 369.548, 483.500 375.742 C 477.218 377.352, 470.523 378.341, 465.492 378.402 C 458.357 378.489, 456.756 378.142, 450.804 375.218 C 447.130 373.412, 442.905 370.487, 441.415 368.718 L 438.707 365.500 443.438 364.821 C 447.762 364.200, 448.541 364.426, 452.505 367.452 C 460.363 373.450, 470.829 374.381, 480.804 369.969 C 489.999 365.901, 493.359 360.319, 493.426 349 C 493.499 336.760, 487.451 326.325, 477.449 321.431 C 472.474 318.997, 471.194 318.797, 463.241 319.211 C 449.144 319.944, 440.446 325.415, 435.216 336.838 C 432.513 342.744, 431.742 351.912, 433.321 359.387 L 434.142 363.274 428.321 362.658 C 425.119 362.319, 379.750 361.545, 327.500 360.938 C 275.250 360.331, 232.097 359.447, 231.605 358.972 C 231.080 358.466, 231.286 356.123, 232.105 353.305 C 232.956 350.373, 233.413 344.849, 233.276 339.135 C 233.153 333.985, 233.504 328.927, 234.056 327.896 C 237.343 321.753, 250.803 320.606, 303.500 321.978 C 355.961 323.344, 398.393 324.877, 404 325.611 C 411.299 326.565, 419.089 329.069, 419.698 330.656 C 420.671 333.190, 414.075 338.912, 408.015 340.791 C 403.196 342.284, 397.768 342.486, 365 342.388 C 344.375 342.327, 317.825 341.764, 306 341.138 C 262.161 338.816, 250.686 338.645, 248.538 340.285 C 246.873 341.557, 246.777 342.026, 247.904 343.385 C 248.635 344.265, 250.868 345.422, 252.866 345.956 C 262.212 348.450, 321.965 350.960, 380 351.295 C 424.572 351.552, 423.224 351.879, 428.984 339.412 C 433.706 329.191, 440.937 321.153, 448.888 317.284 C 453.896 314.847, 455.631 314.550, 465 314.527 C 474.797 314.502, 475.859 314.699, 480.859 317.468 C 487.102 320.926, 492.038 326.335, 495.606 333.628 C 497.659 337.824, 498.307 341.123, 498.991 350.872 C 499.456 357.502, 500.163 363.455, 500.562 364.100 C 502.087 366.567, 527.475 362.884, 532.745 359.431 C 535.663 357.520, 535.595 355.196, 532.500 351 C 529.245 346.589, 529.312 345.076, 532.750 345.312 L 535.500 345.500 535.133 339.508 C 534.932 336.212, 534.323 332.387, 533.781 331.008 C 533.239 329.629, 532.661 325.479, 532.497 321.786 C 532.056 311.833, 529.890 308.184, 522.169 304.383 C 509.954 298.370, 487.775 294.128, 444.500 289.530 C 394.165 284.182, 396.876 284.702, 387.626 278.609 C 371.307 267.859, 345.244 254.551, 331.739 250.072 C 318.158 245.568, 311.225 244.858, 277 244.470 C 253.629 244.205, 241.551 244.481, 234 245.452 M 250.591 252.096 C 237.400 253.182, 221.398 256.316, 210.870 259.875 C 196.763 264.643, 193 267.315, 193 272.559 C 193 280.440, 202.011 282.024, 261 284.508 C 281.075 285.353, 308.975 287.013, 323 288.196 C 352.751 290.707, 388.218 291.232, 391.750 289.215 C 392.988 288.508, 394 287.534, 394 287.052 C 394 286.569, 390.962 285.195, 387.250 284 C 383.538 282.805, 371.275 277.236, 360 271.625 C 331.068 257.227, 320.125 254.208, 289 252.033 C 272.737 250.897, 264.999 250.909, 250.591 252.096 M 109.750 292.088 C 111.567 293.995, 111.288 296.364, 108.886 299.418 C 107.723 300.896, 106.989 302.323, 107.255 302.588 C 107.927 303.260, 122.794 300.112, 126.750 298.459 C 133.845 295.496, 129.550 292.823, 115.500 291.457 C 109.740 290.897, 108.722 291.009, 109.750 292.088 M 495.250 310.603 C 492.612 311.792, 494.334 312.981, 504.250 316.819 C 509.887 319.001, 517.087 321.935, 520.250 323.338 C 523.413 324.742, 526 325.491, 526 325.004 C 526 324.517, 525.514 323.818, 524.921 323.451 C 524.235 323.027, 524.083 321.031, 524.504 317.972 C 525.103 313.617, 524.944 313.038, 522.833 311.886 C 520.446 310.583, 497.646 309.523, 495.250 310.603 M 455.500 322.399 C 445.961 325.416, 439.402 331.438, 436.554 339.795 C 433.859 347.705, 435.043 363.021, 438.348 362.989 C 438.982 362.983, 441.143 362.706, 443.151 362.374 L 446.802 361.770 445.401 358.417 C 442.408 351.254, 444.291 341.502, 449.803 335.624 C 453.530 331.649, 461.622 328.022, 466.790 328.010 C 480.442 327.979, 489.208 343.341, 482.750 355.980 C 478.706 363.895, 471.687 366.631, 463.081 363.649 C 458.447 362.043, 452.685 362.473, 453.256 364.383 C 453.440 364.997, 455.758 366.585, 458.407 367.910 C 469.665 373.543, 485.135 368.771, 489.623 358.282 C 491.528 353.831, 491.354 344.480, 489.255 338.500 C 486.981 332.022, 479.058 323.892, 473.384 322.216 C 468.196 320.683, 460.682 320.760, 455.500 322.399 M 180.105 331.635 C 171.838 335.755, 165.975 345.863, 166.014 355.932 C 166.044 363.875, 167.243 364.901, 174.735 363.403 L 177.719 362.806 177.237 356.063 C 176.661 348.013, 178.657 342.790, 183.420 339.886 C 187.584 337.346, 194 337.420, 196.811 340.039 C 199.680 342.712, 199.750 349.050, 196.961 353.564 C 194.887 356.919, 186.747 363, 184.329 363 C 182.009 363, 182.893 364.893, 185.950 366.474 C 187.573 367.313, 190.410 368, 192.254 368 C 197.254 368, 205.725 363.372, 208.557 359.094 C 213.050 352.304, 212.722 341.730, 207.825 335.505 C 202.485 328.716, 189.578 326.914, 180.105 331.635 M 462.123 331.002 C 450.721 333.694, 443.519 346.215, 447.450 356.509 C 448.908 360.326, 449.578 361, 451.916 361 C 455.735 361, 456.006 360.425, 454.271 356.008 C 452.272 350.919, 453.308 345.538, 456.997 341.850 C 460.265 338.581, 461.870 338.370, 466.552 340.591 C 473.267 343.778, 473.046 352.949, 466.131 358.061 C 464.452 359.302, 463.312 360.696, 463.598 361.159 C 464.581 362.749, 474.386 362.048, 476.625 360.228 C 480.523 357.058, 482.286 353.153, 482.286 347.684 C 482.286 339.471, 477.861 332.968, 470.917 330.976 C 467.109 329.884, 466.855 329.885, 462.123 331.002 M 183.479 343.321 C 179.814 346.986, 178.395 351.961, 179.434 357.500 C 180.175 361.452, 181.491 361.812, 186.300 359.383 C 195.480 354.745, 200.009 345.221, 194.777 341.557 C 191.123 338.997, 187.189 339.611, 183.479 343.321 M 457.557 344.223 C 453.645 349.807, 456.978 360.687, 461.809 358.102 C 465.248 356.262, 469 350.980, 469 347.980 C 469 342.493, 460.681 339.761, 457.557 344.223" stroke="none" fill="#161616" fill-rule="evenodd"/></svg>